<svg width="120" height="120" viewBox="0 0 120 120" fill="none" xmlns="http://www.w3.org/2000/svg">
<rect width="120" height="120" rx="15" fill="url(#paint0_linear_41_19)"/>
<path d="M73.8265 64.936L64.6105 64.84C61.9865 64.84 59.9705 64.872 58.5625 64.936C57.5385 73.896 57.0265 81.16 57.0265 86.728C57.0265 92.296 57.2185 96.2 57.6025 98.44C55.5545 98.568 54.2105 98.632 53.5705 98.632C49.9225 98.632 47.2985 97.992 45.6985 96.712C44.0985 95.432 43.2985 93.192 43.2985 89.992C43.2985 86.728 44.1945 78.952 45.9865 66.664C43.9385 67.304 42.4345 67.848 41.4745 68.296C41.3465 66.888 41.2825 65.832 41.2825 65.128C41.2825 60.712 43.2985 57.96 47.3305 56.872C48.5465 48.104 49.2825 40.52 49.5385 34.12C46.2745 34.12 44.1945 33.672 43.2985 32.776C42.4665 31.88 42.0505 29.896 42.0505 26.824C42.3065 23.944 42.5625 22.056 42.8185 21.16C50.0505 22.12 57.9865 22.6 66.6265 22.6C75.2665 22.6 83.6185 21.832 91.6825 20.296C90.7865 27.016 86.6905 31.048 79.3945 32.392C75.4265 33.16 69.7625 33.672 62.4025 33.928C62.3385 34.76 61.4105 42.216 59.6185 56.296C63.3305 56.424 65.8585 56.488 67.2025 56.488C73.2825 56.488 77.6025 55.432 80.1625 53.32C80.2905 54.6 80.3545 55.56 80.3545 56.2C80.3545 62.024 78.1785 64.936 73.8265 64.936Z" fill="white"/>
<defs>
<linearGradient id="paint0_linear_41_19" x1="60" y1="0" x2="60" y2="120" gradientUnits="userSpaceOnUse">
<stop stop-color="#B9C1FF"/>
<stop offset="1" stop-color="#E7C7FF"/>
</linearGradient>
</defs>
</svg>
